<?xml version="1.0" standalone="no"?><!DOCTYPE svg PUBLIC "-//W3C//DTD SVG 1.1//EN" "http://www.w3.org/Graphics/SVG/1.1/DTD/svg11.dtd"><svg t="1536765224098" class="icon" style="" viewBox="0 0 1024 1024" version="1.1" xmlns="http://www.w3.org/2000/svg" p-id="2500" xmlns:xlink="http://www.w3.org/1999/xlink" width="200" height="200"><defs><style type="text/css"></style></defs><path d="M512 32c265.11 0 480 214.89 480 480 0 265.08-214.89 480-480 480S32 777.08 32 512C32 246.89 246.89 32 512 32zM398.06 738.95c130.26 0 217.77-88.56 217.74-220.29v-43.95H399.11v87.9h122.22c-14.04 56.76-57.27 88.41-123.3 88.41-78.06 0-141.57-62.37-141.57-139.02s63.51-139.02 141.57-139.02c34.14 0 67.11 12.12 92.82 34.08l58.77-66.33a233.43 233.43 0 0 0-151.56-55.65C270.65 285.08 167 386.9 167 512.03S270.65 738.95 398.06 738.95z m458.97-264.21h-67.02V407.75h-53.58v66.99h-66.99v53.58h66.99v66.99h53.58v-66.99h67.02v-53.58z" fill="" p-id="2501"></path></svg>